<mxfile host="app.diagrams.net" modified="2023-12-05T07:50:46.294Z" agent="Mozilla/5.0 (Macintosh; Intel Mac OS X 10_15_7) AppleWebKit/537.36 (KHTML, like Gecko) Chrome/119.0.0.0 Safari/537.36" etag="9frkaQp4DskNX2Mi-wmq" version="22.1.5" type="github">
  <diagram name="Page-1" id="2YBvvXClWsGukQMizWep">
    <mxGraphModel dx="1026" dy="606" grid="1" gridSize="10" guides="1" tooltips="1" connect="1" arrows="1" fold="1" page="1" pageScale="1" pageWidth="850" pageHeight="1100" math="0" shadow="0">
      <root>
        <mxCell id="0" />
        <mxCell id="1" parent="0" />
        <mxCell id="A0_264QHaIkkcCj5fKIe-1" value="Platform&lt;br&gt;" style="rounded=0;whiteSpace=wrap;html=1;" vertex="1" parent="1">
          <mxGeometry x="170" y="150" width="120" height="60" as="geometry" />
        </mxCell>
        <mxCell id="A0_264QHaIkkcCj5fKIe-2" value="RabbitMQ" style="rounded=0;whiteSpace=wrap;html=1;" vertex="1" parent="1">
          <mxGeometry x="370" y="150" width="120" height="60" as="geometry" />
        </mxCell>
        <mxCell id="A0_264QHaIkkcCj5fKIe-3" value="MariaDB" style="rounded=0;whiteSpace=wrap;html=1;" vertex="1" parent="1">
          <mxGeometry x="720" y="150" width="120" height="60" as="geometry" />
        </mxCell>
        <mxCell id="A0_264QHaIkkcCj5fKIe-4" value="" style="endArrow=none;dashed=1;html=1;rounded=0;entryX=0.5;entryY=1;entryDx=0;entryDy=0;" edge="1" parent="1" target="A0_264QHaIkkcCj5fKIe-1">
          <mxGeometry width="50" height="50" relative="1" as="geometry">
            <mxPoint x="230" y="340" as="sourcePoint" />
            <mxPoint x="490" y="290" as="targetPoint" />
          </mxGeometry>
        </mxCell>
        <mxCell id="A0_264QHaIkkcCj5fKIe-5" value="" style="endArrow=none;dashed=1;html=1;rounded=0;entryX=0.5;entryY=1;entryDx=0;entryDy=0;" edge="1" parent="1">
          <mxGeometry width="50" height="50" relative="1" as="geometry">
            <mxPoint x="429.5" y="340" as="sourcePoint" />
            <mxPoint x="429.5" y="210" as="targetPoint" />
          </mxGeometry>
        </mxCell>
        <mxCell id="A0_264QHaIkkcCj5fKIe-6" value="" style="endArrow=none;dashed=1;html=1;rounded=0;entryX=0.5;entryY=1;entryDx=0;entryDy=0;" edge="1" parent="1">
          <mxGeometry width="50" height="50" relative="1" as="geometry">
            <mxPoint x="780" y="480" as="sourcePoint" />
            <mxPoint x="779.5" y="210" as="targetPoint" />
          </mxGeometry>
        </mxCell>
        <mxCell id="A0_264QHaIkkcCj5fKIe-7" value="User" style="shape=umlActor;verticalLabelPosition=bottom;verticalAlign=top;html=1;outlineConnect=0;" vertex="1" parent="1">
          <mxGeometry x="20" y="200" width="30" height="60" as="geometry" />
        </mxCell>
        <mxCell id="A0_264QHaIkkcCj5fKIe-10" value="core service" style="rounded=0;whiteSpace=wrap;html=1;" vertex="1" parent="1">
          <mxGeometry x="540" y="150" width="120" height="60" as="geometry" />
        </mxCell>
        <mxCell id="A0_264QHaIkkcCj5fKIe-11" value="" style="endArrow=none;dashed=1;html=1;rounded=0;entryX=0.5;entryY=1;entryDx=0;entryDy=0;" edge="1" parent="1">
          <mxGeometry width="50" height="50" relative="1" as="geometry">
            <mxPoint x="599.5" y="340" as="sourcePoint" />
            <mxPoint x="599.5" y="210" as="targetPoint" />
          </mxGeometry>
        </mxCell>
        <mxCell id="A0_264QHaIkkcCj5fKIe-12" value="" style="endArrow=classic;html=1;rounded=0;" edge="1" parent="1">
          <mxGeometry width="50" height="50" relative="1" as="geometry">
            <mxPoint x="70" y="240" as="sourcePoint" />
            <mxPoint x="230" y="240" as="targetPoint" />
          </mxGeometry>
        </mxCell>
        <mxCell id="A0_264QHaIkkcCj5fKIe-13" value="Deposit&lt;br&gt;money" style="text;html=1;align=center;verticalAlign=middle;resizable=0;points=[];autosize=1;strokeColor=none;fillColor=none;" vertex="1" parent="1">
          <mxGeometry x="110" y="250" width="60" height="40" as="geometry" />
        </mxCell>
        <mxCell id="A0_264QHaIkkcCj5fKIe-14" value="" style="endArrow=classic;html=1;rounded=0;" edge="1" parent="1">
          <mxGeometry width="50" height="50" relative="1" as="geometry">
            <mxPoint x="230" y="240" as="sourcePoint" />
            <mxPoint x="430" y="240" as="targetPoint" />
          </mxGeometry>
        </mxCell>
        <mxCell id="A0_264QHaIkkcCj5fKIe-15" value="Event triggered&lt;br&gt;Send to the queue" style="text;html=1;align=center;verticalAlign=middle;resizable=0;points=[];autosize=1;strokeColor=none;fillColor=none;" vertex="1" parent="1">
          <mxGeometry x="270" y="243" width="120" height="40" as="geometry" />
        </mxCell>
        <mxCell id="A0_264QHaIkkcCj5fKIe-18" value="" style="endArrow=classic;html=1;rounded=0;" edge="1" parent="1">
          <mxGeometry width="50" height="50" relative="1" as="geometry">
            <mxPoint x="430" y="240" as="sourcePoint" />
            <mxPoint x="600" y="240" as="targetPoint" />
          </mxGeometry>
        </mxCell>
        <mxCell id="A0_264QHaIkkcCj5fKIe-19" value="Job triggered&lt;br&gt;the amount taken&lt;br&gt;" style="text;html=1;align=center;verticalAlign=middle;resizable=0;points=[];autosize=1;strokeColor=none;fillColor=none;" vertex="1" parent="1">
          <mxGeometry x="450" y="243" width="120" height="40" as="geometry" />
        </mxCell>
        <mxCell id="A0_264QHaIkkcCj5fKIe-20" value="1. get the stored amount from DB&lt;br&gt;2. do calculations by user and aggregate new amount" style="rounded=0;whiteSpace=wrap;html=1;" vertex="1" parent="1">
          <mxGeometry x="540" y="290" width="120" height="110" as="geometry" />
        </mxCell>
        <mxCell id="A0_264QHaIkkcCj5fKIe-21" value="" style="endArrow=none;dashed=1;html=1;rounded=0;entryX=0.5;entryY=1;entryDx=0;entryDy=0;" edge="1" parent="1" target="A0_264QHaIkkcCj5fKIe-20">
          <mxGeometry width="50" height="50" relative="1" as="geometry">
            <mxPoint x="600" y="480" as="sourcePoint" />
            <mxPoint x="450" y="290" as="targetPoint" />
          </mxGeometry>
        </mxCell>
        <mxCell id="A0_264QHaIkkcCj5fKIe-22" value="" style="endArrow=classic;html=1;rounded=0;" edge="1" parent="1">
          <mxGeometry width="50" height="50" relative="1" as="geometry">
            <mxPoint x="600" y="440" as="sourcePoint" />
            <mxPoint x="780" y="440" as="targetPoint" />
          </mxGeometry>
        </mxCell>
        <mxCell id="A0_264QHaIkkcCj5fKIe-23" value="Send&lt;br&gt;amount" style="text;html=1;align=center;verticalAlign=middle;resizable=0;points=[];autosize=1;strokeColor=none;fillColor=none;" vertex="1" parent="1">
          <mxGeometry x="660" y="440" width="60" height="40" as="geometry" />
        </mxCell>
      </root>
    </mxGraphModel>
  </diagram>
</mxfile>
